<svg xmlns="http://www.w3.org/2000/svg" width="1440" height="670" viewBox="0 0 1440 670"><defs><radialGradient id="b"><stop stop-color="#f7e5cb" stop-opacity=".65"/><stop offset="1" stop-color="#efd5b3" stop-opacity="0"/></radialGradient></defs><g fill="url(#b)"><circle cx="27" cy="29" r="14"/><circle cx="129" cy="510" r="13"/><circle cx="1222" cy="236" r="20"/><circle cx="1378" cy="405" r="11"/><circle cx="68" cy="208" r="6"/><circle cx="1170" cy="78" r="6"/></g><g fill="#e8d6be" opacity=".37"><circle cx="39" cy="105" r="2"/><circle cx="84" cy="52" r="1"/><circle cx="168" cy="156" r="2"/><circle cx="92" cy="368" r="3"/><circle cx="201" cy="276" r="1"/><circle cx="291" cy="64" r="1"/><circle cx="1245" cy="117" r="3"/><circle cx="1311" cy="182" r="1"/><circle cx="1355" cy="77" r="2"/><circle cx="1420" cy="322" r="2"/><circle cx="1240" cy="409" r="1"/><circle cx="30" cy="260" r="1"/><circle cx="59" cy="468" r="2"/><circle cx="231" cy="394" r="1"/></g></svg>
